# Blender 3.6.4
# www.blender.org
mtllib untitled.mtl
o Cylinder
v 0.000000 -1.000000 -0.961866
v 0.000000 1.000000 -0.961866
v 0.698049 -1.000000 -0.698049
v 0.698049 1.000000 -0.698049
v 0.961866 -1.000000 -0.000000
v 0.961866 1.000000 -0.000000
v 0.698049 -1.000000 0.698049
v 0.698049 1.000000 0.698049
v 0.000000 -1.000000 0.961866
v 0.000000 1.000000 0.961866
v -0.698049 -1.000000 0.698049
v -0.698049 1.000000 0.698049
v -0.961866 -1.000000 0.000000
v -0.961866 1.000000 0.000000
v -0.698049 -1.000000 -0.698049
v -0.698049 1.000000 -0.698049
vn 0.3535 -0.0000 -0.9354
vn 0.9354 -0.0000 -0.3535
vn 0.9354 -0.0000 0.3535
vn 0.3535 -0.0000 0.9354
vn -0.3535 -0.0000 0.9354
vn -0.9354 -0.0000 0.3535
vn -0.9354 -0.0000 -0.3535
vn -0.3535 -0.0000 -0.9354
vn -0.0000 -1.0000 -0.0000
vn -0.0000 1.0000 -0.0000
vt 0.937500 0.500000
vt 0.937500 1.000000
vt 0.906250 1.000000
vt 0.906250 0.500000
vt 0.843750 0.500000
vt 0.843750 1.000000
vt 0.812500 1.000000
vt 0.812500 0.500000
vt 0.687500 0.500000
vt 0.687500 1.000000
vt 0.656250 1.000000
vt 0.656250 0.500000
vt 0.593750 0.500000
vt 0.593750 1.000000
vt 0.562500 1.000000
vt 0.562500 0.500000
vt 0.437500 0.500000
vt 0.437500 1.000000
vt 0.406250 1.000000
vt 0.406250 0.500000
vt 0.343750 0.500000
vt 0.343750 1.000000
vt 0.312500 1.000000
vt 0.312500 0.500000
vt 0.187500 0.500000
vt 0.187500 1.000000
vt 0.156250 1.000000
vt 0.156250 0.500000
vt 0.093750 0.500000
vt 0.093750 1.000000
vt 0.062500 1.000000
vt 0.062500 0.500000
vt 0.841844 0.471731
vt 0.949553 0.383337
vt 0.971731 0.158156
vt 0.883337 0.050447
vt 0.658156 0.028269
vt 0.550447 0.116663
vt 0.528269 0.341844
vt 0.616663 0.449553
vt 0.158156 0.471731
vt 0.050447 0.383337
vt 0.028269 0.158156
vt 0.116663 0.050447
vt 0.341844 0.028269
vt 0.449553 0.116663
vt 0.471731 0.341844
vt 0.383337 0.449553
s 0
f 1/1/1 2/2/1 4/3/1
f 1/1/1 4/3/1 3/4/1
f 3/5/2 4/6/2 6/7/2
f 3/5/2 6/7/2 5/8/2
f 5/9/3 6/10/3 8/11/3
f 5/9/3 8/11/3 7/12/3
f 7/13/4 8/14/4 10/15/4
f 7/13/4 10/15/4 9/16/4
f 9/17/5 10/18/5 12/19/5
f 9/17/5 12/19/5 11/20/5
f 11/21/6 12/22/6 14/23/6
f 11/21/6 14/23/6 13/24/6
f 13/25/7 14/26/7 16/27/7
f 13/25/7 16/27/7 15/28/7
f 15/29/8 16/30/8 2/31/8
f 15/29/8 2/31/8 1/32/8
f 3/34/9 15/40/9 1/33/9
f 7/36/9 3/34/9 5/35/9
f 7/36/9 11/38/9 3/34/9
f 11/38/9 15/40/9 3/34/9
f 9/37/9 11/38/9 7/36/9
f 11/38/9 13/39/9 15/40/9
f 2/41/10 16/42/10 4/48/10
f 6/47/10 4/48/10 8/46/10
f 4/48/10 12/44/10 8/46/10
f 4/48/10 16/42/10 12/44/10
f 8/46/10 12/44/10 10/45/10
f 16/42/10 14/43/10 12/44/10